<mxfile host="app.diagrams.net" modified="2024-03-26T13:12:02.200Z" agent="Mozilla/5.0 (Windows NT 10.0; Win64; x64) AppleWebKit/537.36 (KHTML, like Gecko) Chrome/123.0.0.0 Safari/537.36" etag="taygYDTxsZTIlkbBOSAE" version="24.1.0" type="device">
  <diagram name="Page-1" id="BP6rgRFg7pVNKXQDB0mp">
    <mxGraphModel dx="2041" dy="2254" grid="1" gridSize="10" guides="1" tooltips="1" connect="1" arrows="1" fold="1" page="1" pageScale="1" pageWidth="850" pageHeight="1100" math="0" shadow="0">
      <root>
        <mxCell id="0" />
        <mxCell id="1" parent="0" />
        <mxCell id="5g6gJACINlA3YSTMsDIn-56" value="&lt;span style=&quot;font-size: 14px;&quot;&gt;&lt;b&gt;Player&lt;/b&gt;&lt;/span&gt;" style="rounded=0;whiteSpace=wrap;html=1;fillColor=#f8cecc;strokeColor=#b85450;" parent="1" vertex="1">
          <mxGeometry x="156.94" y="976.9999999999998" width="120" height="35" as="geometry" />
        </mxCell>
        <mxCell id="5g6gJACINlA3YSTMsDIn-57" value="&lt;span style=&quot;font-size: 14px;&quot;&gt;&lt;b&gt;Manager&lt;/b&gt;&lt;/span&gt;" style="rounded=0;whiteSpace=wrap;html=1;fillColor=#f8cecc;strokeColor=#b85450;" parent="1" vertex="1">
          <mxGeometry x="156" y="820" width="120" height="35" as="geometry" />
        </mxCell>
        <mxCell id="5g6gJACINlA3YSTMsDIn-80" style="edgeStyle=orthogonalEdgeStyle;rounded=0;orthogonalLoop=1;jettySize=auto;html=1;exitX=0.5;exitY=1;exitDx=0;exitDy=0;entryX=0.5;entryY=0;entryDx=0;entryDy=0;" parent="1" source="5g6gJACINlA3YSTMsDIn-58" target="5g6gJACINlA3YSTMsDIn-57" edge="1">
          <mxGeometry relative="1" as="geometry" />
        </mxCell>
        <mxCell id="5g6gJACINlA3YSTMsDIn-82" value="1" style="edgeLabel;html=1;align=center;verticalAlign=middle;resizable=0;points=[];" parent="5g6gJACINlA3YSTMsDIn-80" vertex="1" connectable="0">
          <mxGeometry x="0.6198" y="1" relative="1" as="geometry">
            <mxPoint x="15" y="9" as="offset" />
          </mxGeometry>
        </mxCell>
        <mxCell id="BQkp51srK-hAf7yxFsHJ-54" value="1" style="edgeLabel;html=1;align=center;verticalAlign=middle;resizable=0;points=[];" parent="5g6gJACINlA3YSTMsDIn-80" vertex="1" connectable="0">
          <mxGeometry x="-0.7781" relative="1" as="geometry">
            <mxPoint x="15" as="offset" />
          </mxGeometry>
        </mxCell>
        <mxCell id="5g6gJACINlA3YSTMsDIn-88" style="edgeStyle=orthogonalEdgeStyle;rounded=0;orthogonalLoop=1;jettySize=auto;html=1;exitX=0.25;exitY=1;exitDx=0;exitDy=0;entryX=0.5;entryY=0;entryDx=0;entryDy=0;" parent="1" source="5g6gJACINlA3YSTMsDIn-67" target="5g6gJACINlA3YSTMsDIn-69" edge="1">
          <mxGeometry relative="1" as="geometry" />
        </mxCell>
        <mxCell id="BQkp51srK-hAf7yxFsHJ-56" value="1" style="edgeLabel;html=1;align=center;verticalAlign=middle;resizable=0;points=[];" parent="5g6gJACINlA3YSTMsDIn-88" vertex="1" connectable="0">
          <mxGeometry x="-0.8851" y="3" relative="1" as="geometry">
            <mxPoint x="9" y="3" as="offset" />
          </mxGeometry>
        </mxCell>
        <mxCell id="BQkp51srK-hAf7yxFsHJ-84" value="2" style="edgeLabel;html=1;align=center;verticalAlign=middle;resizable=0;points=[];" parent="5g6gJACINlA3YSTMsDIn-88" vertex="1" connectable="0">
          <mxGeometry x="0.7092" relative="1" as="geometry">
            <mxPoint x="13" y="7" as="offset" />
          </mxGeometry>
        </mxCell>
        <mxCell id="5g6gJACINlA3YSTMsDIn-58" value="&lt;span style=&quot;font-size: 14px;&quot;&gt;&lt;b&gt;Team&lt;/b&gt;&lt;/span&gt;" style="rounded=0;whiteSpace=wrap;html=1;fillColor=#f8cecc;strokeColor=#b85450;" parent="1" vertex="1">
          <mxGeometry x="156" y="660" width="120" height="35" as="geometry" />
        </mxCell>
        <mxCell id="5g6gJACINlA3YSTMsDIn-59" value="&lt;span style=&quot;font-size: 14px;&quot;&gt;&lt;b&gt;Referee&lt;/b&gt;&lt;/span&gt;" style="rounded=0;whiteSpace=wrap;html=1;fillColor=#f8cecc;strokeColor=#b85450;" parent="1" vertex="1">
          <mxGeometry x="155" y="480" width="120" height="35" as="geometry" />
        </mxCell>
        <mxCell id="5g6gJACINlA3YSTMsDIn-60" value="&lt;span style=&quot;font-size: 14px;&quot;&gt;&lt;b&gt;Stadium&lt;/b&gt;&lt;/span&gt;" style="rounded=0;whiteSpace=wrap;html=1;fillColor=#f8cecc;strokeColor=#b85450;" parent="1" vertex="1">
          <mxGeometry x="155" y="570" width="120" height="35" as="geometry" />
        </mxCell>
        <mxCell id="5g6gJACINlA3YSTMsDIn-71" style="edgeStyle=orthogonalEdgeStyle;rounded=0;orthogonalLoop=1;jettySize=auto;html=1;exitX=0.5;exitY=1;exitDx=0;exitDy=0;entryX=0.5;entryY=0;entryDx=0;entryDy=0;startArrow=classic;startFill=1;endArrow=none;endFill=0;" parent="1" target="5g6gJACINlA3YSTMsDIn-67" edge="1">
          <mxGeometry relative="1" as="geometry">
            <mxPoint x="490" y="414.9999999999998" as="sourcePoint" />
          </mxGeometry>
        </mxCell>
        <mxCell id="5g6gJACINlA3YSTMsDIn-75" value="1" style="edgeLabel;html=1;align=center;verticalAlign=middle;resizable=0;points=[];" parent="5g6gJACINlA3YSTMsDIn-71" vertex="1" connectable="0">
          <mxGeometry x="0.4626" y="1" relative="1" as="geometry">
            <mxPoint x="11" y="16" as="offset" />
          </mxGeometry>
        </mxCell>
        <mxCell id="BQkp51srK-hAf7yxFsHJ-52" value="1" style="edgeLabel;html=1;align=center;verticalAlign=middle;resizable=0;points=[];" parent="5g6gJACINlA3YSTMsDIn-71" vertex="1" connectable="0">
          <mxGeometry x="-0.7405" y="2" relative="1" as="geometry">
            <mxPoint x="8" as="offset" />
          </mxGeometry>
        </mxCell>
        <mxCell id="IG-J_bV3zsLTxcyjoO28-22" style="edgeStyle=orthogonalEdgeStyle;rounded=0;orthogonalLoop=1;jettySize=auto;html=1;exitX=0.5;exitY=0;exitDx=0;exitDy=0;entryX=0.5;entryY=1;entryDx=0;entryDy=0;" parent="1" source="5g6gJACINlA3YSTMsDIn-62" target="5g6gJACINlA3YSTMsDIn-63" edge="1">
          <mxGeometry relative="1" as="geometry" />
        </mxCell>
        <mxCell id="IG-J_bV3zsLTxcyjoO28-23" value="1" style="edgeLabel;html=1;align=center;verticalAlign=middle;resizable=0;points=[];" parent="IG-J_bV3zsLTxcyjoO28-22" vertex="1" connectable="0">
          <mxGeometry x="0.7692" y="2" relative="1" as="geometry">
            <mxPoint x="12" as="offset" />
          </mxGeometry>
        </mxCell>
        <mxCell id="BQkp51srK-hAf7yxFsHJ-51" value="1..*" style="edgeLabel;html=1;align=center;verticalAlign=middle;resizable=0;points=[];" parent="IG-J_bV3zsLTxcyjoO28-22" vertex="1" connectable="0">
          <mxGeometry x="-0.771" y="1" relative="1" as="geometry">
            <mxPoint x="21" as="offset" />
          </mxGeometry>
        </mxCell>
        <mxCell id="5g6gJACINlA3YSTMsDIn-62" value="&lt;span style=&quot;font-size: 14px;&quot;&gt;&lt;b&gt;Season&lt;/b&gt;&lt;/span&gt;" style="rounded=0;whiteSpace=wrap;html=1;fillColor=#dae8fc;strokeColor=#6c8ebf;" parent="1" vertex="1">
          <mxGeometry x="430" y="380" width="120" height="35" as="geometry" />
        </mxCell>
        <mxCell id="5g6gJACINlA3YSTMsDIn-63" value="&lt;span style=&quot;font-size: 14px;&quot;&gt;&lt;b&gt;Competition&lt;/b&gt;&lt;/span&gt;" style="rounded=0;whiteSpace=wrap;html=1;fillColor=#dae8fc;strokeColor=#6c8ebf;" parent="1" vertex="1">
          <mxGeometry x="430" y="225" width="120" height="35" as="geometry" />
        </mxCell>
        <mxCell id="5g6gJACINlA3YSTMsDIn-83" style="edgeStyle=orthogonalEdgeStyle;rounded=0;orthogonalLoop=1;jettySize=auto;html=1;exitX=0;exitY=0.5;exitDx=0;exitDy=0;entryX=1;entryY=0.5;entryDx=0;entryDy=0;" parent="1" source="5g6gJACINlA3YSTMsDIn-67" target="5g6gJACINlA3YSTMsDIn-60" edge="1">
          <mxGeometry relative="1" as="geometry" />
        </mxCell>
        <mxCell id="5g6gJACINlA3YSTMsDIn-84" value="1" style="edgeLabel;html=1;align=center;verticalAlign=middle;resizable=0;points=[];" parent="5g6gJACINlA3YSTMsDIn-83" vertex="1" connectable="0">
          <mxGeometry x="0.7424" y="-1" relative="1" as="geometry">
            <mxPoint x="-6" y="-8" as="offset" />
          </mxGeometry>
        </mxCell>
        <mxCell id="5g6gJACINlA3YSTMsDIn-85" style="edgeStyle=orthogonalEdgeStyle;rounded=0;orthogonalLoop=1;jettySize=auto;html=1;exitX=0;exitY=0.5;exitDx=0;exitDy=0;entryX=1;entryY=0.5;entryDx=0;entryDy=0;" parent="1" source="5g6gJACINlA3YSTMsDIn-67" target="5g6gJACINlA3YSTMsDIn-59" edge="1">
          <mxGeometry relative="1" as="geometry" />
        </mxCell>
        <mxCell id="BQkp51srK-hAf7yxFsHJ-53" value="1" style="edgeLabel;html=1;align=center;verticalAlign=middle;resizable=0;points=[];" parent="5g6gJACINlA3YSTMsDIn-85" vertex="1" connectable="0">
          <mxGeometry x="-0.8034" y="-1" relative="1" as="geometry">
            <mxPoint x="7" y="-9" as="offset" />
          </mxGeometry>
        </mxCell>
        <mxCell id="BQkp51srK-hAf7yxFsHJ-55" value="1" style="edgeLabel;html=1;align=center;verticalAlign=middle;resizable=0;points=[];" parent="5g6gJACINlA3YSTMsDIn-85" vertex="1" connectable="0">
          <mxGeometry x="0.7143" y="2" relative="1" as="geometry">
            <mxPoint x="-13" y="-13" as="offset" />
          </mxGeometry>
        </mxCell>
        <mxCell id="BQkp51srK-hAf7yxFsHJ-79" style="edgeStyle=orthogonalEdgeStyle;rounded=0;orthogonalLoop=1;jettySize=auto;html=1;exitX=0;exitY=0.5;exitDx=0;exitDy=0;entryX=1;entryY=0.5;entryDx=0;entryDy=0;" parent="1" source="5g6gJACINlA3YSTMsDIn-67" target="5g6gJACINlA3YSTMsDIn-58" edge="1">
          <mxGeometry relative="1" as="geometry" />
        </mxCell>
        <mxCell id="BQkp51srK-hAf7yxFsHJ-85" value="2" style="edgeLabel;html=1;align=center;verticalAlign=middle;resizable=0;points=[];" parent="BQkp51srK-hAf7yxFsHJ-79" vertex="1" connectable="0">
          <mxGeometry x="0.8801" y="1" relative="1" as="geometry">
            <mxPoint x="-2" y="-13" as="offset" />
          </mxGeometry>
        </mxCell>
        <mxCell id="5g6gJACINlA3YSTMsDIn-67" value="&lt;span style=&quot;font-size: 14px;&quot;&gt;&lt;b&gt;Match&lt;/b&gt;&lt;/span&gt;" style="rounded=0;whiteSpace=wrap;html=1;fillColor=#dae8fc;strokeColor=#6c8ebf;" parent="1" vertex="1">
          <mxGeometry x="430" y="535" width="120" height="35" as="geometry" />
        </mxCell>
        <mxCell id="sgmP8QoL_bL-2wYsMg8x-15" style="edgeStyle=orthogonalEdgeStyle;rounded=0;orthogonalLoop=1;jettySize=auto;html=1;exitX=0;exitY=0.5;exitDx=0;exitDy=0;entryX=1;entryY=0.75;entryDx=0;entryDy=0;" edge="1" parent="1" source="5g6gJACINlA3YSTMsDIn-68" target="5g6gJACINlA3YSTMsDIn-58">
          <mxGeometry relative="1" as="geometry" />
        </mxCell>
        <mxCell id="5g6gJACINlA3YSTMsDIn-68" value="&lt;span style=&quot;font-size: 14px;&quot;&gt;&lt;b&gt;Event&lt;/b&gt;&lt;/span&gt;" style="rounded=0;whiteSpace=wrap;html=1;fillColor=#fff2cc;strokeColor=#d6b656;" parent="1" vertex="1">
          <mxGeometry x="882.24" y="892" width="120" height="35" as="geometry" />
        </mxCell>
        <mxCell id="5g6gJACINlA3YSTMsDIn-69" value="&lt;span style=&quot;font-size: 14px;&quot;&gt;&lt;b&gt;Lineup&lt;/b&gt;&lt;/span&gt;" style="rounded=0;whiteSpace=wrap;html=1;fillColor=#fff2cc;strokeColor=#d6b656;" parent="1" vertex="1">
          <mxGeometry x="400" y="899.75" width="120" height="35" as="geometry" />
        </mxCell>
        <mxCell id="IG-J_bV3zsLTxcyjoO28-1" value="&lt;u&gt;competition_id&lt;/u&gt;" style="ellipse;whiteSpace=wrap;html=1;fontSize=13;fillColor=#f5f5f5;strokeColor=#666666;fontColor=#333333;" parent="1" vertex="1">
          <mxGeometry x="50" y="170" width="100" height="40" as="geometry" />
        </mxCell>
        <mxCell id="IG-J_bV3zsLTxcyjoO28-7" value="competition_country" style="ellipse;whiteSpace=wrap;html=1;fontSize=13;fillColor=#f5f5f5;strokeColor=#666666;fontColor=#333333;" parent="1" vertex="1">
          <mxGeometry x="150" y="170" width="130" height="40" as="geometry" />
        </mxCell>
        <mxCell id="IG-J_bV3zsLTxcyjoO28-9" value="competition_gender" style="ellipse;whiteSpace=wrap;html=1;fontSize=13;fillColor=#f5f5f5;strokeColor=#666666;fontColor=#333333;" parent="1" vertex="1">
          <mxGeometry x="10" y="269" width="130" height="40" as="geometry" />
        </mxCell>
        <mxCell id="IG-J_bV3zsLTxcyjoO28-10" value="competition_youth" style="ellipse;whiteSpace=wrap;html=1;fontSize=13;fillColor=#f5f5f5;strokeColor=#666666;fontColor=#333333;" parent="1" vertex="1">
          <mxGeometry x="300" y="269" width="120" height="40" as="geometry" />
        </mxCell>
        <mxCell id="IG-J_bV3zsLTxcyjoO28-11" value="competition_international" style="ellipse;whiteSpace=wrap;html=1;fontSize=13;fillColor=#f5f5f5;strokeColor=#666666;fontColor=#333333;" parent="1" vertex="1">
          <mxGeometry x="140" y="269" width="160" height="40" as="geometry" />
        </mxCell>
        <mxCell id="IG-J_bV3zsLTxcyjoO28-21" value="" style="endArrow=none;html=1;rounded=0;exitX=0.5;exitY=0;exitDx=0;exitDy=0;" parent="1" edge="1">
          <mxGeometry width="50" height="50" relative="1" as="geometry">
            <mxPoint x="430" y="400" as="sourcePoint" />
            <mxPoint x="165" y="400" as="targetPoint" />
          </mxGeometry>
        </mxCell>
        <mxCell id="IG-J_bV3zsLTxcyjoO28-25" style="edgeStyle=orthogonalEdgeStyle;rounded=0;orthogonalLoop=1;jettySize=auto;html=1;endArrow=none;endFill=0;exitX=0.5;exitY=1;exitDx=0;exitDy=0;" parent="1" source="IG-J_bV3zsLTxcyjoO28-24" edge="1">
          <mxGeometry relative="1" as="geometry">
            <mxPoint x="165" y="400" as="targetPoint" />
            <mxPoint x="264.67" y="340" as="sourcePoint" />
          </mxGeometry>
        </mxCell>
        <mxCell id="IG-J_bV3zsLTxcyjoO28-24" value="&lt;u&gt;season_id&lt;/u&gt;" style="ellipse;whiteSpace=wrap;html=1;fontSize=13;fillColor=#f5f5f5;strokeColor=#666666;fontColor=#333333;" parent="1" vertex="1">
          <mxGeometry x="115" y="330" width="100" height="40" as="geometry" />
        </mxCell>
        <mxCell id="IG-J_bV3zsLTxcyjoO28-26" value="season_name" style="ellipse;whiteSpace=wrap;html=1;fontSize=13;fillColor=#f5f5f5;strokeColor=#666666;fontColor=#333333;" parent="1" vertex="1">
          <mxGeometry x="315" y="330" width="100" height="40" as="geometry" />
        </mxCell>
        <mxCell id="IG-J_bV3zsLTxcyjoO28-27" value="&lt;u&gt;competition_id&lt;/u&gt;" style="ellipse;whiteSpace=wrap;html=1;fontSize=13;fillColor=#f5f5f5;strokeColor=#666666;fontColor=#333333;" parent="1" vertex="1">
          <mxGeometry x="215" y="330" width="100" height="40" as="geometry" />
        </mxCell>
        <mxCell id="IG-J_bV3zsLTxcyjoO28-28" style="edgeStyle=orthogonalEdgeStyle;rounded=0;orthogonalLoop=1;jettySize=auto;html=1;endArrow=none;endFill=0;exitX=0.5;exitY=1;exitDx=0;exitDy=0;" parent="1" source="IG-J_bV3zsLTxcyjoO28-26" edge="1">
          <mxGeometry relative="1" as="geometry">
            <mxPoint x="364.59" y="400" as="targetPoint" />
            <mxPoint x="364.88" y="340" as="sourcePoint" />
          </mxGeometry>
        </mxCell>
        <mxCell id="IG-J_bV3zsLTxcyjoO28-29" style="edgeStyle=orthogonalEdgeStyle;rounded=0;orthogonalLoop=1;jettySize=auto;html=1;endArrow=none;endFill=0;exitX=0.5;exitY=1;exitDx=0;exitDy=0;" parent="1" source="IG-J_bV3zsLTxcyjoO28-27" edge="1">
          <mxGeometry relative="1" as="geometry">
            <mxPoint x="265" y="400" as="targetPoint" />
            <mxPoint x="164.88" y="340" as="sourcePoint" />
          </mxGeometry>
        </mxCell>
        <mxCell id="IG-J_bV3zsLTxcyjoO28-30" value="" style="endArrow=none;html=1;rounded=0;" parent="1" edge="1">
          <mxGeometry width="50" height="50" relative="1" as="geometry">
            <mxPoint x="1232" y="560" as="sourcePoint" />
            <mxPoint x="550" y="560" as="targetPoint" />
          </mxGeometry>
        </mxCell>
        <mxCell id="IG-J_bV3zsLTxcyjoO28-31" style="edgeStyle=orthogonalEdgeStyle;rounded=0;orthogonalLoop=1;jettySize=auto;html=1;endArrow=none;endFill=0;exitX=0.5;exitY=1;exitDx=0;exitDy=0;" parent="1" source="IG-J_bV3zsLTxcyjoO28-32" edge="1">
          <mxGeometry relative="1" as="geometry">
            <mxPoint x="632" y="560" as="targetPoint" />
            <mxPoint x="731.9" y="500" as="sourcePoint" />
          </mxGeometry>
        </mxCell>
        <mxCell id="IG-J_bV3zsLTxcyjoO28-32" value="&lt;u&gt;match_id&lt;/u&gt;" style="ellipse;whiteSpace=wrap;html=1;fontSize=13;fillColor=#f5f5f5;strokeColor=#666666;fontColor=#333333;" parent="1" vertex="1">
          <mxGeometry x="582.24" y="495" width="100" height="40" as="geometry" />
        </mxCell>
        <mxCell id="IG-J_bV3zsLTxcyjoO28-33" value="match_date" style="ellipse;whiteSpace=wrap;html=1;fontSize=13;fillColor=#f5f5f5;strokeColor=#666666;fontColor=#333333;" parent="1" vertex="1">
          <mxGeometry x="982.24" y="495" width="100" height="40" as="geometry" />
        </mxCell>
        <mxCell id="IG-J_bV3zsLTxcyjoO28-34" value="&lt;u&gt;season_id&lt;/u&gt;" style="ellipse;whiteSpace=wrap;html=1;fontSize=13;fillColor=#f5f5f5;strokeColor=#666666;fontColor=#333333;" parent="1" vertex="1">
          <mxGeometry x="682.24" y="495" width="100" height="40" as="geometry" />
        </mxCell>
        <mxCell id="IG-J_bV3zsLTxcyjoO28-36" style="edgeStyle=orthogonalEdgeStyle;rounded=0;orthogonalLoop=1;jettySize=auto;html=1;endArrow=none;endFill=0;exitX=0.5;exitY=1;exitDx=0;exitDy=0;" parent="1" source="IG-J_bV3zsLTxcyjoO28-34" edge="1">
          <mxGeometry relative="1" as="geometry">
            <mxPoint x="732" y="560" as="targetPoint" />
            <mxPoint x="632.1500000000001" y="500" as="sourcePoint" />
          </mxGeometry>
        </mxCell>
        <mxCell id="IG-J_bV3zsLTxcyjoO28-38" value="kick_off" style="ellipse;whiteSpace=wrap;html=1;fontSize=13;fillColor=#f5f5f5;strokeColor=#666666;fontColor=#333333;" parent="1" vertex="1">
          <mxGeometry x="982.24" y="590" width="100" height="40" as="geometry" />
        </mxCell>
        <mxCell id="IG-J_bV3zsLTxcyjoO28-41" value="home_team_id" style="ellipse;whiteSpace=wrap;html=1;fontSize=13;fillColor=#f5f5f5;strokeColor=#666666;fontColor=#333333;" parent="1" vertex="1">
          <mxGeometry x="582.24" y="590" width="100" height="40" as="geometry" />
        </mxCell>
        <mxCell id="IG-J_bV3zsLTxcyjoO28-42" value="away_team_id" style="ellipse;whiteSpace=wrap;html=1;fontSize=13;fillColor=#f5f5f5;strokeColor=#666666;fontColor=#333333;" parent="1" vertex="1">
          <mxGeometry x="682.24" y="590" width="100" height="40" as="geometry" />
        </mxCell>
        <mxCell id="IG-J_bV3zsLTxcyjoO28-43" value="home_score" style="ellipse;whiteSpace=wrap;html=1;fontSize=13;fillColor=#f5f5f5;strokeColor=#666666;fontColor=#333333;" parent="1" vertex="1">
          <mxGeometry x="782.24" y="590" width="100" height="40" as="geometry" />
        </mxCell>
        <mxCell id="IG-J_bV3zsLTxcyjoO28-44" value="away_score" style="ellipse;whiteSpace=wrap;html=1;fontSize=13;fillColor=#f5f5f5;strokeColor=#666666;fontColor=#333333;" parent="1" vertex="1">
          <mxGeometry x="882.24" y="590" width="100" height="40" as="geometry" />
        </mxCell>
        <mxCell id="IG-J_bV3zsLTxcyjoO28-45" style="edgeStyle=orthogonalEdgeStyle;rounded=0;orthogonalLoop=1;jettySize=auto;html=1;endArrow=none;endFill=0;entryX=0.5;entryY=0;entryDx=0;entryDy=0;" parent="1" target="IG-J_bV3zsLTxcyjoO28-41" edge="1">
          <mxGeometry relative="1" as="geometry">
            <mxPoint x="631.8500000000001" y="620" as="targetPoint" />
            <mxPoint x="632.1400000000001" y="560" as="sourcePoint" />
          </mxGeometry>
        </mxCell>
        <mxCell id="IG-J_bV3zsLTxcyjoO28-46" style="edgeStyle=orthogonalEdgeStyle;rounded=0;orthogonalLoop=1;jettySize=auto;html=1;endArrow=none;endFill=0;entryX=0.5;entryY=0;entryDx=0;entryDy=0;" parent="1" target="IG-J_bV3zsLTxcyjoO28-42" edge="1">
          <mxGeometry relative="1" as="geometry">
            <mxPoint x="731.4600000000002" y="620" as="targetPoint" />
            <mxPoint x="731.7500000000001" y="560" as="sourcePoint" />
          </mxGeometry>
        </mxCell>
        <mxCell id="IG-J_bV3zsLTxcyjoO28-47" style="edgeStyle=orthogonalEdgeStyle;rounded=0;orthogonalLoop=1;jettySize=auto;html=1;endArrow=none;endFill=0;entryX=0.5;entryY=0;entryDx=0;entryDy=0;" parent="1" target="IG-J_bV3zsLTxcyjoO28-43" edge="1">
          <mxGeometry relative="1" as="geometry">
            <mxPoint x="831.8500000000001" y="620" as="targetPoint" />
            <mxPoint x="832.1400000000001" y="560" as="sourcePoint" />
          </mxGeometry>
        </mxCell>
        <mxCell id="IG-J_bV3zsLTxcyjoO28-48" style="edgeStyle=orthogonalEdgeStyle;rounded=0;orthogonalLoop=1;jettySize=auto;html=1;endArrow=none;endFill=0;entryX=0.5;entryY=0;entryDx=0;entryDy=0;" parent="1" target="IG-J_bV3zsLTxcyjoO28-44" edge="1">
          <mxGeometry relative="1" as="geometry">
            <mxPoint x="931.8400000000001" y="620" as="targetPoint" />
            <mxPoint x="932.1300000000001" y="560" as="sourcePoint" />
          </mxGeometry>
        </mxCell>
        <mxCell id="IG-J_bV3zsLTxcyjoO28-53" value="&lt;u&gt;stadium_id&lt;/u&gt;" style="ellipse;whiteSpace=wrap;html=1;fontSize=13;fillColor=#f5f5f5;strokeColor=#666666;fontColor=#333333;" parent="1" vertex="1">
          <mxGeometry x="782.24" y="495" width="100" height="40" as="geometry" />
        </mxCell>
        <mxCell id="IG-J_bV3zsLTxcyjoO28-54" value="&lt;u&gt;referee_id&lt;/u&gt;" style="ellipse;whiteSpace=wrap;html=1;fontSize=13;fillColor=#f5f5f5;strokeColor=#666666;fontColor=#333333;" parent="1" vertex="1">
          <mxGeometry x="882.24" y="495" width="100" height="40" as="geometry" />
        </mxCell>
        <mxCell id="IG-J_bV3zsLTxcyjoO28-55" value="match_week" style="ellipse;whiteSpace=wrap;html=1;fontSize=13;fillColor=#f5f5f5;strokeColor=#666666;fontColor=#333333;" parent="1" vertex="1">
          <mxGeometry x="1082.24" y="495" width="100" height="40" as="geometry" />
        </mxCell>
        <mxCell id="IG-J_bV3zsLTxcyjoO28-56" style="edgeStyle=orthogonalEdgeStyle;rounded=0;orthogonalLoop=1;jettySize=auto;html=1;endArrow=none;endFill=0;exitX=0.5;exitY=1;exitDx=0;exitDy=0;" parent="1" edge="1">
          <mxGeometry relative="1" as="geometry">
            <mxPoint x="832.05" y="560" as="targetPoint" />
            <mxPoint x="832.15" y="535" as="sourcePoint" />
          </mxGeometry>
        </mxCell>
        <mxCell id="IG-J_bV3zsLTxcyjoO28-57" style="edgeStyle=orthogonalEdgeStyle;rounded=0;orthogonalLoop=1;jettySize=auto;html=1;endArrow=none;endFill=0;exitX=0.5;exitY=1;exitDx=0;exitDy=0;" parent="1" edge="1">
          <mxGeometry relative="1" as="geometry">
            <mxPoint x="932.05" y="560" as="targetPoint" />
            <mxPoint x="932.15" y="535" as="sourcePoint" />
          </mxGeometry>
        </mxCell>
        <mxCell id="IG-J_bV3zsLTxcyjoO28-58" style="edgeStyle=orthogonalEdgeStyle;rounded=0;orthogonalLoop=1;jettySize=auto;html=1;endArrow=none;endFill=0;exitX=0.5;exitY=1;exitDx=0;exitDy=0;" parent="1" edge="1">
          <mxGeometry relative="1" as="geometry">
            <mxPoint x="1032.05" y="560" as="targetPoint" />
            <mxPoint x="1032.15" y="535" as="sourcePoint" />
          </mxGeometry>
        </mxCell>
        <mxCell id="IG-J_bV3zsLTxcyjoO28-59" style="edgeStyle=orthogonalEdgeStyle;rounded=0;orthogonalLoop=1;jettySize=auto;html=1;endArrow=none;endFill=0;exitX=0.5;exitY=1;exitDx=0;exitDy=0;" parent="1" edge="1">
          <mxGeometry relative="1" as="geometry">
            <mxPoint x="1132.05" y="560" as="targetPoint" />
            <mxPoint x="1132.1499999999999" y="535" as="sourcePoint" />
          </mxGeometry>
        </mxCell>
        <mxCell id="IG-J_bV3zsLTxcyjoO28-60" style="edgeStyle=orthogonalEdgeStyle;rounded=0;orthogonalLoop=1;jettySize=auto;html=1;endArrow=none;endFill=0;" parent="1" edge="1">
          <mxGeometry relative="1" as="geometry">
            <mxPoint x="1031.74" y="590" as="targetPoint" />
            <mxPoint x="1032" y="560" as="sourcePoint" />
          </mxGeometry>
        </mxCell>
        <mxCell id="IG-J_bV3zsLTxcyjoO28-61" value="" style="endArrow=none;html=1;rounded=0;exitX=0;exitY=0.5;exitDx=0;exitDy=0;" parent="1" source="5g6gJACINlA3YSTMsDIn-63" edge="1">
          <mxGeometry width="50" height="50" relative="1" as="geometry">
            <mxPoint x="405" y="242.13" as="sourcePoint" />
            <mxPoint x="100" y="242" as="targetPoint" />
          </mxGeometry>
        </mxCell>
        <mxCell id="IG-J_bV3zsLTxcyjoO28-62" style="edgeStyle=orthogonalEdgeStyle;rounded=0;orthogonalLoop=1;jettySize=auto;html=1;endArrow=none;endFill=0;exitX=0.5;exitY=1;exitDx=0;exitDy=0;" parent="1" source="IG-J_bV3zsLTxcyjoO28-1" edge="1">
          <mxGeometry relative="1" as="geometry">
            <mxPoint x="100" y="242" as="targetPoint" />
            <mxPoint x="165.44" y="212" as="sourcePoint" />
          </mxGeometry>
        </mxCell>
        <mxCell id="IG-J_bV3zsLTxcyjoO28-63" style="edgeStyle=orthogonalEdgeStyle;rounded=0;orthogonalLoop=1;jettySize=auto;html=1;endArrow=none;endFill=0;exitX=0.5;exitY=1;exitDx=0;exitDy=0;" parent="1" edge="1">
          <mxGeometry relative="1" as="geometry">
            <mxPoint x="219.53" y="242" as="targetPoint" />
            <mxPoint x="219.5" y="210" as="sourcePoint" />
          </mxGeometry>
        </mxCell>
        <mxCell id="IG-J_bV3zsLTxcyjoO28-64" style="edgeStyle=orthogonalEdgeStyle;rounded=0;orthogonalLoop=1;jettySize=auto;html=1;endArrow=none;endFill=0;" parent="1" edge="1">
          <mxGeometry relative="1" as="geometry">
            <mxPoint x="100.03" y="270" as="targetPoint" />
            <mxPoint x="100" y="242" as="sourcePoint" />
          </mxGeometry>
        </mxCell>
        <mxCell id="IG-J_bV3zsLTxcyjoO28-68" value="competition_name" style="ellipse;whiteSpace=wrap;html=1;fontSize=13;fillColor=#f5f5f5;strokeColor=#666666;fontColor=#333333;" parent="1" vertex="1">
          <mxGeometry x="280" y="170" width="120" height="40" as="geometry" />
        </mxCell>
        <mxCell id="IG-J_bV3zsLTxcyjoO28-69" style="edgeStyle=orthogonalEdgeStyle;rounded=0;orthogonalLoop=1;jettySize=auto;html=1;endArrow=none;endFill=0;exitX=0.5;exitY=1;exitDx=0;exitDy=0;" parent="1" edge="1">
          <mxGeometry relative="1" as="geometry">
            <mxPoint x="339.53" y="242" as="targetPoint" />
            <mxPoint x="339.5" y="210" as="sourcePoint" />
          </mxGeometry>
        </mxCell>
        <mxCell id="IG-J_bV3zsLTxcyjoO28-70" style="edgeStyle=orthogonalEdgeStyle;rounded=0;orthogonalLoop=1;jettySize=auto;html=1;endArrow=none;endFill=0;" parent="1" edge="1">
          <mxGeometry relative="1" as="geometry">
            <mxPoint x="219.55" y="269" as="targetPoint" />
            <mxPoint x="220" y="241" as="sourcePoint" />
          </mxGeometry>
        </mxCell>
        <mxCell id="IG-J_bV3zsLTxcyjoO28-71" style="edgeStyle=orthogonalEdgeStyle;rounded=0;orthogonalLoop=1;jettySize=auto;html=1;endArrow=none;endFill=0;" parent="1" edge="1">
          <mxGeometry relative="1" as="geometry">
            <mxPoint x="339.64" y="269" as="targetPoint" />
            <mxPoint x="339.87" y="243" as="sourcePoint" />
          </mxGeometry>
        </mxCell>
        <mxCell id="AWW1g_IwWj1rGyHnbPeC-2" value="" style="endArrow=none;html=1;rounded=0;exitX=0.5;exitY=0;exitDx=0;exitDy=0;" parent="1" edge="1">
          <mxGeometry width="50" height="50" relative="1" as="geometry">
            <mxPoint x="155" y="500" as="sourcePoint" />
            <mxPoint x="-110" y="500" as="targetPoint" />
          </mxGeometry>
        </mxCell>
        <mxCell id="AWW1g_IwWj1rGyHnbPeC-3" style="edgeStyle=orthogonalEdgeStyle;rounded=0;orthogonalLoop=1;jettySize=auto;html=1;endArrow=none;endFill=0;exitX=0.5;exitY=1;exitDx=0;exitDy=0;" parent="1" source="AWW1g_IwWj1rGyHnbPeC-4" edge="1">
          <mxGeometry relative="1" as="geometry">
            <mxPoint x="-110" y="500" as="targetPoint" />
            <mxPoint x="-10.329999999999984" y="440" as="sourcePoint" />
          </mxGeometry>
        </mxCell>
        <mxCell id="AWW1g_IwWj1rGyHnbPeC-4" value="&lt;u&gt;referee_id&lt;/u&gt;" style="ellipse;whiteSpace=wrap;html=1;fontSize=13;fillColor=#f5f5f5;strokeColor=#666666;fontColor=#333333;" parent="1" vertex="1">
          <mxGeometry x="-160" y="430" width="100" height="40" as="geometry" />
        </mxCell>
        <mxCell id="AWW1g_IwWj1rGyHnbPeC-5" value="referee_country" style="ellipse;whiteSpace=wrap;html=1;fontSize=13;fillColor=#f5f5f5;strokeColor=#666666;fontColor=#333333;" parent="1" vertex="1">
          <mxGeometry x="40" y="430" width="100" height="40" as="geometry" />
        </mxCell>
        <mxCell id="AWW1g_IwWj1rGyHnbPeC-6" value="referee_name" style="ellipse;whiteSpace=wrap;html=1;fontSize=13;fillColor=#f5f5f5;strokeColor=#666666;fontColor=#333333;" parent="1" vertex="1">
          <mxGeometry x="-60" y="430" width="100" height="40" as="geometry" />
        </mxCell>
        <mxCell id="AWW1g_IwWj1rGyHnbPeC-7" style="edgeStyle=orthogonalEdgeStyle;rounded=0;orthogonalLoop=1;jettySize=auto;html=1;endArrow=none;endFill=0;exitX=0.5;exitY=1;exitDx=0;exitDy=0;" parent="1" source="AWW1g_IwWj1rGyHnbPeC-5" edge="1">
          <mxGeometry relative="1" as="geometry">
            <mxPoint x="89.58999999999997" y="500" as="targetPoint" />
            <mxPoint x="89.88" y="440" as="sourcePoint" />
          </mxGeometry>
        </mxCell>
        <mxCell id="AWW1g_IwWj1rGyHnbPeC-8" style="edgeStyle=orthogonalEdgeStyle;rounded=0;orthogonalLoop=1;jettySize=auto;html=1;endArrow=none;endFill=0;exitX=0.5;exitY=1;exitDx=0;exitDy=0;" parent="1" source="AWW1g_IwWj1rGyHnbPeC-6" edge="1">
          <mxGeometry relative="1" as="geometry">
            <mxPoint x="-10" y="500" as="targetPoint" />
            <mxPoint x="-110.12" y="440" as="sourcePoint" />
          </mxGeometry>
        </mxCell>
        <mxCell id="AWW1g_IwWj1rGyHnbPeC-9" value="" style="endArrow=none;html=1;rounded=0;exitX=0.5;exitY=0;exitDx=0;exitDy=0;" parent="1" edge="1">
          <mxGeometry width="50" height="50" relative="1" as="geometry">
            <mxPoint x="155" y="588.67" as="sourcePoint" />
            <mxPoint x="-110" y="588.67" as="targetPoint" />
          </mxGeometry>
        </mxCell>
        <mxCell id="AWW1g_IwWj1rGyHnbPeC-10" style="edgeStyle=orthogonalEdgeStyle;rounded=0;orthogonalLoop=1;jettySize=auto;html=1;endArrow=none;endFill=0;exitX=0.5;exitY=1;exitDx=0;exitDy=0;" parent="1" source="AWW1g_IwWj1rGyHnbPeC-11" edge="1">
          <mxGeometry relative="1" as="geometry">
            <mxPoint x="-110" y="588.67" as="targetPoint" />
            <mxPoint x="-10.329999999999984" y="528.67" as="sourcePoint" />
          </mxGeometry>
        </mxCell>
        <mxCell id="AWW1g_IwWj1rGyHnbPeC-11" value="&lt;u&gt;stadium_id&lt;/u&gt;" style="ellipse;whiteSpace=wrap;html=1;fontSize=13;fillColor=#f5f5f5;strokeColor=#666666;fontColor=#333333;" parent="1" vertex="1">
          <mxGeometry x="-160" y="518.67" width="100" height="40" as="geometry" />
        </mxCell>
        <mxCell id="AWW1g_IwWj1rGyHnbPeC-12" value="stadium_country" style="ellipse;whiteSpace=wrap;html=1;fontSize=13;fillColor=#f5f5f5;strokeColor=#666666;fontColor=#333333;" parent="1" vertex="1">
          <mxGeometry x="40" y="518.67" width="100" height="40" as="geometry" />
        </mxCell>
        <mxCell id="AWW1g_IwWj1rGyHnbPeC-13" value="stadium_name" style="ellipse;whiteSpace=wrap;html=1;fontSize=13;fillColor=#f5f5f5;strokeColor=#666666;fontColor=#333333;" parent="1" vertex="1">
          <mxGeometry x="-60" y="518.67" width="100" height="40" as="geometry" />
        </mxCell>
        <mxCell id="AWW1g_IwWj1rGyHnbPeC-14" style="edgeStyle=orthogonalEdgeStyle;rounded=0;orthogonalLoop=1;jettySize=auto;html=1;endArrow=none;endFill=0;exitX=0.5;exitY=1;exitDx=0;exitDy=0;" parent="1" source="AWW1g_IwWj1rGyHnbPeC-12" edge="1">
          <mxGeometry relative="1" as="geometry">
            <mxPoint x="89.58999999999997" y="588.67" as="targetPoint" />
            <mxPoint x="89.88" y="528.67" as="sourcePoint" />
          </mxGeometry>
        </mxCell>
        <mxCell id="AWW1g_IwWj1rGyHnbPeC-15" style="edgeStyle=orthogonalEdgeStyle;rounded=0;orthogonalLoop=1;jettySize=auto;html=1;endArrow=none;endFill=0;exitX=0.5;exitY=1;exitDx=0;exitDy=0;" parent="1" source="AWW1g_IwWj1rGyHnbPeC-13" edge="1">
          <mxGeometry relative="1" as="geometry">
            <mxPoint x="-10" y="588.67" as="targetPoint" />
            <mxPoint x="-110.12" y="528.67" as="sourcePoint" />
          </mxGeometry>
        </mxCell>
        <mxCell id="AWW1g_IwWj1rGyHnbPeC-16" value="" style="endArrow=none;html=1;rounded=0;exitX=0.5;exitY=0;exitDx=0;exitDy=0;" parent="1" edge="1">
          <mxGeometry width="50" height="50" relative="1" as="geometry">
            <mxPoint x="156" y="680" as="sourcePoint" />
            <mxPoint x="-109" y="680" as="targetPoint" />
          </mxGeometry>
        </mxCell>
        <mxCell id="AWW1g_IwWj1rGyHnbPeC-17" style="edgeStyle=orthogonalEdgeStyle;rounded=0;orthogonalLoop=1;jettySize=auto;html=1;endArrow=none;endFill=0;exitX=0.5;exitY=1;exitDx=0;exitDy=0;" parent="1" source="AWW1g_IwWj1rGyHnbPeC-18" edge="1">
          <mxGeometry relative="1" as="geometry">
            <mxPoint x="-109" y="680" as="targetPoint" />
            <mxPoint x="-9.329999999999984" y="620" as="sourcePoint" />
          </mxGeometry>
        </mxCell>
        <mxCell id="AWW1g_IwWj1rGyHnbPeC-18" value="&lt;u&gt;team_id&lt;/u&gt;" style="ellipse;whiteSpace=wrap;html=1;fontSize=13;fillColor=#f5f5f5;strokeColor=#666666;fontColor=#333333;" parent="1" vertex="1">
          <mxGeometry x="-159" y="610" width="100" height="40" as="geometry" />
        </mxCell>
        <mxCell id="AWW1g_IwWj1rGyHnbPeC-19" value="team_country" style="ellipse;whiteSpace=wrap;html=1;fontSize=13;fillColor=#f5f5f5;strokeColor=#666666;fontColor=#333333;" parent="1" vertex="1">
          <mxGeometry x="41" y="610" width="100" height="40" as="geometry" />
        </mxCell>
        <mxCell id="AWW1g_IwWj1rGyHnbPeC-20" value="team_name" style="ellipse;whiteSpace=wrap;html=1;fontSize=13;fillColor=#f5f5f5;strokeColor=#666666;fontColor=#333333;" parent="1" vertex="1">
          <mxGeometry x="-59" y="610" width="100" height="40" as="geometry" />
        </mxCell>
        <mxCell id="AWW1g_IwWj1rGyHnbPeC-21" style="edgeStyle=orthogonalEdgeStyle;rounded=0;orthogonalLoop=1;jettySize=auto;html=1;endArrow=none;endFill=0;exitX=0.5;exitY=1;exitDx=0;exitDy=0;" parent="1" source="AWW1g_IwWj1rGyHnbPeC-19" edge="1">
          <mxGeometry relative="1" as="geometry">
            <mxPoint x="90.58999999999997" y="680" as="targetPoint" />
            <mxPoint x="90.88" y="620" as="sourcePoint" />
          </mxGeometry>
        </mxCell>
        <mxCell id="AWW1g_IwWj1rGyHnbPeC-22" style="edgeStyle=orthogonalEdgeStyle;rounded=0;orthogonalLoop=1;jettySize=auto;html=1;endArrow=none;endFill=0;exitX=0.5;exitY=1;exitDx=0;exitDy=0;" parent="1" source="AWW1g_IwWj1rGyHnbPeC-20" edge="1">
          <mxGeometry relative="1" as="geometry">
            <mxPoint x="-9" y="680" as="targetPoint" />
            <mxPoint x="-109.12" y="620" as="sourcePoint" />
          </mxGeometry>
        </mxCell>
        <mxCell id="AWW1g_IwWj1rGyHnbPeC-23" value="team_gender" style="ellipse;whiteSpace=wrap;html=1;fontSize=13;fillColor=#f5f5f5;strokeColor=#666666;fontColor=#333333;" parent="1" vertex="1">
          <mxGeometry x="-160" y="710" width="100" height="40" as="geometry" />
        </mxCell>
        <mxCell id="AWW1g_IwWj1rGyHnbPeC-25" value="&lt;u&gt;manager_id&lt;/u&gt;" style="ellipse;whiteSpace=wrap;html=1;fontSize=13;fillColor=#f5f5f5;strokeColor=#666666;fontColor=#333333;" parent="1" vertex="1">
          <mxGeometry x="-60" y="710" width="100" height="40" as="geometry" />
        </mxCell>
        <mxCell id="AWW1g_IwWj1rGyHnbPeC-26" style="edgeStyle=orthogonalEdgeStyle;rounded=0;orthogonalLoop=1;jettySize=auto;html=1;endArrow=none;endFill=0;exitX=0.5;exitY=1;exitDx=0;exitDy=0;" parent="1" edge="1">
          <mxGeometry relative="1" as="geometry">
            <mxPoint x="-109" y="710" as="targetPoint" />
            <mxPoint x="-109" y="680" as="sourcePoint" />
          </mxGeometry>
        </mxCell>
        <mxCell id="AWW1g_IwWj1rGyHnbPeC-28" style="edgeStyle=orthogonalEdgeStyle;rounded=0;orthogonalLoop=1;jettySize=auto;html=1;endArrow=none;endFill=0;exitX=0.5;exitY=1;exitDx=0;exitDy=0;" parent="1" edge="1">
          <mxGeometry relative="1" as="geometry">
            <mxPoint x="-9" y="710" as="targetPoint" />
            <mxPoint x="-9" y="680" as="sourcePoint" />
          </mxGeometry>
        </mxCell>
        <mxCell id="AWW1g_IwWj1rGyHnbPeC-29" value="" style="endArrow=none;html=1;rounded=0;exitX=0.5;exitY=0;exitDx=0;exitDy=0;" parent="1" edge="1">
          <mxGeometry width="50" height="50" relative="1" as="geometry">
            <mxPoint x="155" y="840" as="sourcePoint" />
            <mxPoint x="-110" y="840" as="targetPoint" />
          </mxGeometry>
        </mxCell>
        <mxCell id="AWW1g_IwWj1rGyHnbPeC-30" style="edgeStyle=orthogonalEdgeStyle;rounded=0;orthogonalLoop=1;jettySize=auto;html=1;endArrow=none;endFill=0;exitX=0.5;exitY=1;exitDx=0;exitDy=0;" parent="1" source="AWW1g_IwWj1rGyHnbPeC-31" edge="1">
          <mxGeometry relative="1" as="geometry">
            <mxPoint x="-110" y="840" as="targetPoint" />
            <mxPoint x="-10.329999999999984" y="780" as="sourcePoint" />
          </mxGeometry>
        </mxCell>
        <mxCell id="AWW1g_IwWj1rGyHnbPeC-31" value="&lt;u&gt;manager_id&lt;/u&gt;" style="ellipse;whiteSpace=wrap;html=1;fontSize=13;fillColor=#f5f5f5;strokeColor=#666666;fontColor=#333333;" parent="1" vertex="1">
          <mxGeometry x="-160" y="770" width="100" height="40" as="geometry" />
        </mxCell>
        <mxCell id="AWW1g_IwWj1rGyHnbPeC-32" value="manager_nickname" style="ellipse;whiteSpace=wrap;html=1;fontSize=13;fillColor=#f5f5f5;strokeColor=#666666;fontColor=#333333;" parent="1" vertex="1">
          <mxGeometry x="40" y="770" width="120" height="40" as="geometry" />
        </mxCell>
        <mxCell id="AWW1g_IwWj1rGyHnbPeC-33" value="manager_name" style="ellipse;whiteSpace=wrap;html=1;fontSize=13;fillColor=#f5f5f5;strokeColor=#666666;fontColor=#333333;" parent="1" vertex="1">
          <mxGeometry x="-60" y="770" width="100" height="40" as="geometry" />
        </mxCell>
        <mxCell id="AWW1g_IwWj1rGyHnbPeC-34" style="edgeStyle=orthogonalEdgeStyle;rounded=0;orthogonalLoop=1;jettySize=auto;html=1;endArrow=none;endFill=0;" parent="1" edge="1">
          <mxGeometry relative="1" as="geometry">
            <mxPoint x="100.46999999999997" y="840" as="targetPoint" />
            <mxPoint x="100.47" y="810" as="sourcePoint" />
          </mxGeometry>
        </mxCell>
        <mxCell id="AWW1g_IwWj1rGyHnbPeC-35" style="edgeStyle=orthogonalEdgeStyle;rounded=0;orthogonalLoop=1;jettySize=auto;html=1;endArrow=none;endFill=0;exitX=0.5;exitY=1;exitDx=0;exitDy=0;" parent="1" source="AWW1g_IwWj1rGyHnbPeC-33" edge="1">
          <mxGeometry relative="1" as="geometry">
            <mxPoint x="-10" y="840" as="targetPoint" />
            <mxPoint x="-110.12" y="780" as="sourcePoint" />
          </mxGeometry>
        </mxCell>
        <mxCell id="AWW1g_IwWj1rGyHnbPeC-36" value="manager_dob" style="ellipse;whiteSpace=wrap;html=1;fontSize=13;fillColor=#f5f5f5;strokeColor=#666666;fontColor=#333333;" parent="1" vertex="1">
          <mxGeometry x="-161" y="870" width="100" height="40" as="geometry" />
        </mxCell>
        <mxCell id="AWW1g_IwWj1rGyHnbPeC-37" value="manager_country" style="ellipse;whiteSpace=wrap;html=1;fontSize=13;fillColor=#f5f5f5;strokeColor=#666666;fontColor=#333333;" parent="1" vertex="1">
          <mxGeometry x="-61" y="870" width="111" height="40" as="geometry" />
        </mxCell>
        <mxCell id="AWW1g_IwWj1rGyHnbPeC-38" style="edgeStyle=orthogonalEdgeStyle;rounded=0;orthogonalLoop=1;jettySize=auto;html=1;endArrow=none;endFill=0;exitX=0.5;exitY=1;exitDx=0;exitDy=0;" parent="1" edge="1">
          <mxGeometry relative="1" as="geometry">
            <mxPoint x="-110" y="870" as="targetPoint" />
            <mxPoint x="-110" y="840" as="sourcePoint" />
          </mxGeometry>
        </mxCell>
        <mxCell id="AWW1g_IwWj1rGyHnbPeC-39" style="edgeStyle=orthogonalEdgeStyle;rounded=0;orthogonalLoop=1;jettySize=auto;html=1;endArrow=none;endFill=0;exitX=0.5;exitY=1;exitDx=0;exitDy=0;" parent="1" edge="1">
          <mxGeometry relative="1" as="geometry">
            <mxPoint x="-10" y="870" as="targetPoint" />
            <mxPoint x="-10" y="840" as="sourcePoint" />
          </mxGeometry>
        </mxCell>
        <mxCell id="AWW1g_IwWj1rGyHnbPeC-40" value="" style="endArrow=none;html=1;rounded=0;exitX=0.5;exitY=0;exitDx=0;exitDy=0;" parent="1" edge="1">
          <mxGeometry width="50" height="50" relative="1" as="geometry">
            <mxPoint x="157.94" y="996.9999999999998" as="sourcePoint" />
            <mxPoint x="-107.06" y="996.9999999999998" as="targetPoint" />
          </mxGeometry>
        </mxCell>
        <mxCell id="AWW1g_IwWj1rGyHnbPeC-41" style="edgeStyle=orthogonalEdgeStyle;rounded=0;orthogonalLoop=1;jettySize=auto;html=1;endArrow=none;endFill=0;exitX=0.5;exitY=1;exitDx=0;exitDy=0;" parent="1" source="AWW1g_IwWj1rGyHnbPeC-42" edge="1">
          <mxGeometry relative="1" as="geometry">
            <mxPoint x="-107.06" y="996.9999999999998" as="targetPoint" />
            <mxPoint x="-7.389999999999928" y="936.9999999999998" as="sourcePoint" />
          </mxGeometry>
        </mxCell>
        <mxCell id="AWW1g_IwWj1rGyHnbPeC-42" value="&lt;u&gt;player_id&lt;/u&gt;" style="ellipse;whiteSpace=wrap;html=1;fontSize=13;fillColor=#f5f5f5;strokeColor=#666666;fontColor=#333333;" parent="1" vertex="1">
          <mxGeometry x="-157.06" y="926.9999999999998" width="100" height="40" as="geometry" />
        </mxCell>
        <mxCell id="AWW1g_IwWj1rGyHnbPeC-43" value="player_nickname" style="ellipse;whiteSpace=wrap;html=1;fontSize=13;fillColor=#f5f5f5;strokeColor=#666666;fontColor=#333333;" parent="1" vertex="1">
          <mxGeometry x="42.94" y="926.9999999999998" width="120" height="40" as="geometry" />
        </mxCell>
        <mxCell id="AWW1g_IwWj1rGyHnbPeC-44" value="player_name" style="ellipse;whiteSpace=wrap;html=1;fontSize=13;fillColor=#f5f5f5;strokeColor=#666666;fontColor=#333333;" parent="1" vertex="1">
          <mxGeometry x="-57.06" y="926.9999999999998" width="100" height="40" as="geometry" />
        </mxCell>
        <mxCell id="AWW1g_IwWj1rGyHnbPeC-45" style="edgeStyle=orthogonalEdgeStyle;rounded=0;orthogonalLoop=1;jettySize=auto;html=1;endArrow=none;endFill=0;" parent="1" edge="1">
          <mxGeometry relative="1" as="geometry">
            <mxPoint x="102.41000000000003" y="996.9999999999998" as="targetPoint" />
            <mxPoint x="102.41000000000003" y="966.9999999999998" as="sourcePoint" />
          </mxGeometry>
        </mxCell>
        <mxCell id="AWW1g_IwWj1rGyHnbPeC-46" style="edgeStyle=orthogonalEdgeStyle;rounded=0;orthogonalLoop=1;jettySize=auto;html=1;endArrow=none;endFill=0;exitX=0.5;exitY=1;exitDx=0;exitDy=0;" parent="1" source="AWW1g_IwWj1rGyHnbPeC-44" edge="1">
          <mxGeometry relative="1" as="geometry">
            <mxPoint x="-7.0600000000000005" y="996.9999999999998" as="targetPoint" />
            <mxPoint x="-107.18" y="936.9999999999998" as="sourcePoint" />
          </mxGeometry>
        </mxCell>
        <mxCell id="AWW1g_IwWj1rGyHnbPeC-47" value="player_number" style="ellipse;whiteSpace=wrap;html=1;fontSize=13;fillColor=#f5f5f5;strokeColor=#666666;fontColor=#333333;" parent="1" vertex="1">
          <mxGeometry x="-158.06" y="1026.9999999999998" width="100" height="40" as="geometry" />
        </mxCell>
        <mxCell id="AWW1g_IwWj1rGyHnbPeC-48" value="player_country" style="ellipse;whiteSpace=wrap;html=1;fontSize=13;fillColor=#f5f5f5;strokeColor=#666666;fontColor=#333333;" parent="1" vertex="1">
          <mxGeometry x="-58.06" y="1026.9999999999998" width="111" height="40" as="geometry" />
        </mxCell>
        <mxCell id="AWW1g_IwWj1rGyHnbPeC-49" style="edgeStyle=orthogonalEdgeStyle;rounded=0;orthogonalLoop=1;jettySize=auto;html=1;endArrow=none;endFill=0;exitX=0.5;exitY=1;exitDx=0;exitDy=0;" parent="1" edge="1">
          <mxGeometry relative="1" as="geometry">
            <mxPoint x="-107.06" y="1026.9999999999998" as="targetPoint" />
            <mxPoint x="-107.06" y="996.9999999999998" as="sourcePoint" />
          </mxGeometry>
        </mxCell>
        <mxCell id="AWW1g_IwWj1rGyHnbPeC-50" style="edgeStyle=orthogonalEdgeStyle;rounded=0;orthogonalLoop=1;jettySize=auto;html=1;endArrow=none;endFill=0;exitX=0.5;exitY=1;exitDx=0;exitDy=0;" parent="1" edge="1">
          <mxGeometry relative="1" as="geometry">
            <mxPoint x="-7.0600000000000005" y="1026.9999999999998" as="targetPoint" />
            <mxPoint x="-7.0600000000000005" y="996.9999999999998" as="sourcePoint" />
          </mxGeometry>
        </mxCell>
        <mxCell id="AWW1g_IwWj1rGyHnbPeC-51" value="away_lineup_id" style="ellipse;whiteSpace=wrap;html=1;fontSize=13;fillColor=#f5f5f5;strokeColor=#666666;fontColor=#333333;" parent="1" vertex="1">
          <mxGeometry x="1182.24" y="590" width="100" height="40" as="geometry" />
        </mxCell>
        <mxCell id="AWW1g_IwWj1rGyHnbPeC-52" value="home_lineup_id" style="ellipse;whiteSpace=wrap;html=1;fontSize=13;fillColor=#f5f5f5;strokeColor=#666666;fontColor=#333333;" parent="1" vertex="1">
          <mxGeometry x="1082.24" y="590" width="100" height="40" as="geometry" />
        </mxCell>
        <mxCell id="BQkp51srK-hAf7yxFsHJ-46" style="edgeStyle=orthogonalEdgeStyle;rounded=0;orthogonalLoop=1;jettySize=auto;html=1;exitX=1;exitY=0.5;exitDx=0;exitDy=0;entryX=0.5;entryY=1;entryDx=0;entryDy=0;" parent="1" source="AWW1g_IwWj1rGyHnbPeC-53" target="5g6gJACINlA3YSTMsDIn-69" edge="1">
          <mxGeometry relative="1" as="geometry" />
        </mxCell>
        <mxCell id="BQkp51srK-hAf7yxFsHJ-57" value="1..*" style="edgeLabel;html=1;align=center;verticalAlign=middle;resizable=0;points=[];" parent="BQkp51srK-hAf7yxFsHJ-46" vertex="1" connectable="0">
          <mxGeometry x="-0.6252" relative="1" as="geometry">
            <mxPoint x="-70" y="-10" as="offset" />
          </mxGeometry>
        </mxCell>
        <mxCell id="sgmP8QoL_bL-2wYsMg8x-14" value="1..*" style="edgeLabel;html=1;align=center;verticalAlign=middle;resizable=0;points=[];" vertex="1" connectable="0" parent="BQkp51srK-hAf7yxFsHJ-46">
          <mxGeometry x="-0.8947" y="-2" relative="1" as="geometry">
            <mxPoint x="2" y="-15" as="offset" />
          </mxGeometry>
        </mxCell>
        <mxCell id="BQkp51srK-hAf7yxFsHJ-93" style="edgeStyle=orthogonalEdgeStyle;rounded=0;orthogonalLoop=1;jettySize=auto;html=1;exitX=0.25;exitY=0;exitDx=0;exitDy=0;entryX=1;entryY=0.5;entryDx=0;entryDy=0;" parent="1" source="AWW1g_IwWj1rGyHnbPeC-53" target="5g6gJACINlA3YSTMsDIn-56" edge="1">
          <mxGeometry relative="1" as="geometry" />
        </mxCell>
        <mxCell id="BQkp51srK-hAf7yxFsHJ-94" value="1" style="edgeLabel;html=1;align=center;verticalAlign=middle;resizable=0;points=[];" parent="BQkp51srK-hAf7yxFsHJ-93" vertex="1" connectable="0">
          <mxGeometry x="0.5114" relative="1" as="geometry">
            <mxPoint x="-15" y="-35" as="offset" />
          </mxGeometry>
        </mxCell>
        <mxCell id="BQkp51srK-hAf7yxFsHJ-95" value="1" style="edgeLabel;html=1;align=center;verticalAlign=middle;resizable=0;points=[];" parent="BQkp51srK-hAf7yxFsHJ-93" vertex="1" connectable="0">
          <mxGeometry x="-0.692" y="-1" relative="1" as="geometry">
            <mxPoint x="10" y="16" as="offset" />
          </mxGeometry>
        </mxCell>
        <mxCell id="AWW1g_IwWj1rGyHnbPeC-53" value="&lt;span style=&quot;font-size: 14px;&quot;&gt;&lt;b&gt;Position&lt;/b&gt;&lt;/span&gt;" style="rounded=0;whiteSpace=wrap;html=1;fillColor=#fff2cc;strokeColor=#d6b656;" parent="1" vertex="1">
          <mxGeometry x="276.93999999999994" y="1163" width="120" height="35" as="geometry" />
        </mxCell>
        <mxCell id="BQkp51srK-hAf7yxFsHJ-3" value="&lt;u&gt;lineup_id&lt;/u&gt;" style="ellipse;whiteSpace=wrap;html=1;fontSize=13;fillColor=#f5f5f5;strokeColor=#666666;fontColor=#333333;" parent="1" vertex="1">
          <mxGeometry x="260" y="897.25" width="100" height="40" as="geometry" />
        </mxCell>
        <mxCell id="BQkp51srK-hAf7yxFsHJ-7" value="" style="endArrow=none;html=1;rounded=0;" parent="1" edge="1">
          <mxGeometry width="50" height="50" relative="1" as="geometry">
            <mxPoint x="276.94" y="1181.78" as="sourcePoint" />
            <mxPoint x="-188" y="1179" as="targetPoint" />
          </mxGeometry>
        </mxCell>
        <mxCell id="BQkp51srK-hAf7yxFsHJ-8" style="edgeStyle=orthogonalEdgeStyle;rounded=0;orthogonalLoop=1;jettySize=auto;html=1;endArrow=none;endFill=0;exitX=0.5;exitY=1;exitDx=0;exitDy=0;" parent="1" source="BQkp51srK-hAf7yxFsHJ-9" edge="1">
          <mxGeometry relative="1" as="geometry">
            <mxPoint x="-188.00000000000006" y="1180.75" as="targetPoint" />
            <mxPoint x="-88.32999999999993" y="1120.75" as="sourcePoint" />
          </mxGeometry>
        </mxCell>
        <mxCell id="BQkp51srK-hAf7yxFsHJ-9" value="&lt;u&gt;position_id&lt;/u&gt;" style="ellipse;whiteSpace=wrap;html=1;fontSize=13;fillColor=#f5f5f5;strokeColor=#666666;fontColor=#333333;" parent="1" vertex="1">
          <mxGeometry x="-238.00000000000006" y="1110.75" width="100" height="40" as="geometry" />
        </mxCell>
        <mxCell id="BQkp51srK-hAf7yxFsHJ-11" value="&lt;u&gt;lineup_id&lt;/u&gt;" style="ellipse;whiteSpace=wrap;html=1;fontSize=13;fillColor=#f5f5f5;strokeColor=#666666;fontColor=#333333;" parent="1" vertex="1">
          <mxGeometry x="-138" y="1110.75" width="100" height="40" as="geometry" />
        </mxCell>
        <mxCell id="BQkp51srK-hAf7yxFsHJ-13" style="edgeStyle=orthogonalEdgeStyle;rounded=0;orthogonalLoop=1;jettySize=auto;html=1;endArrow=none;endFill=0;exitX=0.5;exitY=1;exitDx=0;exitDy=0;" parent="1" source="BQkp51srK-hAf7yxFsHJ-11" edge="1">
          <mxGeometry relative="1" as="geometry">
            <mxPoint x="-88" y="1180.75" as="targetPoint" />
            <mxPoint x="-188.12000000000006" y="1120.75" as="sourcePoint" />
          </mxGeometry>
        </mxCell>
        <mxCell id="BQkp51srK-hAf7yxFsHJ-18" style="edgeStyle=orthogonalEdgeStyle;rounded=0;orthogonalLoop=1;jettySize=auto;html=1;endArrow=none;endFill=0;exitX=0.5;exitY=1;exitDx=0;exitDy=0;entryX=0.5;entryY=0;entryDx=0;entryDy=0;" parent="1" target="AWW1g_IwWj1rGyHnbPeC-52" edge="1">
          <mxGeometry relative="1" as="geometry">
            <mxPoint x="1132.03" y="583.67" as="targetPoint" />
            <mxPoint x="1132.1299999999999" y="558.67" as="sourcePoint" />
          </mxGeometry>
        </mxCell>
        <mxCell id="BQkp51srK-hAf7yxFsHJ-19" style="edgeStyle=orthogonalEdgeStyle;rounded=0;orthogonalLoop=1;jettySize=auto;html=1;endArrow=none;endFill=0;entryX=0.5;entryY=0;entryDx=0;entryDy=0;" parent="1" edge="1">
          <mxGeometry relative="1" as="geometry">
            <mxPoint x="1232.03" y="590" as="targetPoint" />
            <mxPoint x="1232" y="560" as="sourcePoint" />
          </mxGeometry>
        </mxCell>
        <mxCell id="BQkp51srK-hAf7yxFsHJ-30" style="edgeStyle=orthogonalEdgeStyle;rounded=0;orthogonalLoop=1;jettySize=auto;html=1;entryX=0.5;entryY=1;entryDx=0;entryDy=0;exitX=0;exitY=0.5;exitDx=0;exitDy=0;" parent="1" source="BQkp51srK-hAf7yxFsHJ-20" target="5g6gJACINlA3YSTMsDIn-69" edge="1">
          <mxGeometry relative="1" as="geometry">
            <mxPoint x="700" y="1130" as="sourcePoint" />
          </mxGeometry>
        </mxCell>
        <mxCell id="BQkp51srK-hAf7yxFsHJ-59" value="1..*" style="edgeLabel;html=1;align=center;verticalAlign=middle;resizable=0;points=[];" parent="BQkp51srK-hAf7yxFsHJ-30" vertex="1" connectable="0">
          <mxGeometry x="-0.8871" y="3" relative="1" as="geometry">
            <mxPoint x="3" y="-17" as="offset" />
          </mxGeometry>
        </mxCell>
        <mxCell id="sgmP8QoL_bL-2wYsMg8x-13" value="1" style="edgeLabel;html=1;align=center;verticalAlign=middle;resizable=0;points=[];" vertex="1" connectable="0" parent="BQkp51srK-hAf7yxFsHJ-30">
          <mxGeometry x="0.9001" relative="1" as="geometry">
            <mxPoint x="15" y="-2" as="offset" />
          </mxGeometry>
        </mxCell>
        <mxCell id="BQkp51srK-hAf7yxFsHJ-20" value="&lt;span style=&quot;font-size: 14px;&quot;&gt;&lt;b&gt;Card&lt;/b&gt;&lt;/span&gt;" style="rounded=0;whiteSpace=wrap;html=1;fillColor=#fff2cc;strokeColor=#d6b656;" parent="1" vertex="1">
          <mxGeometry x="531.5" y="1163" width="120" height="35" as="geometry" />
        </mxCell>
        <mxCell id="BQkp51srK-hAf7yxFsHJ-27" value="" style="endArrow=none;html=1;rounded=0;entryX=1;entryY=0.5;entryDx=0;entryDy=0;" parent="1" target="BQkp51srK-hAf7yxFsHJ-20" edge="1">
          <mxGeometry width="50" height="50" relative="1" as="geometry">
            <mxPoint x="1015.5" y="1182" as="sourcePoint" />
            <mxPoint x="662.6000000000001" y="1180.74" as="targetPoint" />
          </mxGeometry>
        </mxCell>
        <mxCell id="BQkp51srK-hAf7yxFsHJ-31" value="&lt;u&gt;player_id&lt;/u&gt;" style="ellipse;whiteSpace=wrap;html=1;fontSize=13;fillColor=#f5f5f5;strokeColor=#666666;fontColor=#333333;" parent="1" vertex="1">
          <mxGeometry x="-38" y="1110.75" width="100" height="40" as="geometry" />
        </mxCell>
        <mxCell id="BQkp51srK-hAf7yxFsHJ-32" value="position_name" style="ellipse;whiteSpace=wrap;html=1;fontSize=13;fillColor=#f5f5f5;strokeColor=#666666;fontColor=#333333;" parent="1" vertex="1">
          <mxGeometry x="62" y="1113.25" width="100" height="40" as="geometry" />
        </mxCell>
        <mxCell id="BQkp51srK-hAf7yxFsHJ-34" value="position_from" style="ellipse;whiteSpace=wrap;html=1;fontSize=13;fillColor=#f5f5f5;strokeColor=#666666;fontColor=#333333;" parent="1" vertex="1">
          <mxGeometry x="162" y="1113.25" width="100" height="40" as="geometry" />
        </mxCell>
        <mxCell id="BQkp51srK-hAf7yxFsHJ-35" style="edgeStyle=orthogonalEdgeStyle;rounded=0;orthogonalLoop=1;jettySize=auto;html=1;endArrow=none;endFill=0;exitX=0.5;exitY=1;exitDx=0;exitDy=0;" parent="1" edge="1">
          <mxGeometry relative="1" as="geometry">
            <mxPoint x="-188.43" y="1209.75" as="targetPoint" />
            <mxPoint x="-188.43" y="1180.25" as="sourcePoint" />
          </mxGeometry>
        </mxCell>
        <mxCell id="BQkp51srK-hAf7yxFsHJ-36" value="position_to" style="ellipse;whiteSpace=wrap;html=1;fontSize=13;fillColor=#f5f5f5;strokeColor=#666666;fontColor=#333333;" parent="1" vertex="1">
          <mxGeometry x="-238.00000000000006" y="1210.25" width="100" height="40" as="geometry" />
        </mxCell>
        <mxCell id="BQkp51srK-hAf7yxFsHJ-37" value="from_period" style="ellipse;whiteSpace=wrap;html=1;fontSize=13;fillColor=#f5f5f5;strokeColor=#666666;fontColor=#333333;" parent="1" vertex="1">
          <mxGeometry x="-138" y="1210.25" width="100" height="40" as="geometry" />
        </mxCell>
        <mxCell id="BQkp51srK-hAf7yxFsHJ-38" value="to_period" style="ellipse;whiteSpace=wrap;html=1;fontSize=13;fillColor=#f5f5f5;strokeColor=#666666;fontColor=#333333;" parent="1" vertex="1">
          <mxGeometry x="-38" y="1210.25" width="100" height="40" as="geometry" />
        </mxCell>
        <mxCell id="BQkp51srK-hAf7yxFsHJ-39" value="start_reason" style="ellipse;whiteSpace=wrap;html=1;fontSize=13;fillColor=#f5f5f5;strokeColor=#666666;fontColor=#333333;" parent="1" vertex="1">
          <mxGeometry x="62" y="1210.25" width="100" height="40" as="geometry" />
        </mxCell>
        <mxCell id="BQkp51srK-hAf7yxFsHJ-40" style="edgeStyle=orthogonalEdgeStyle;rounded=0;orthogonalLoop=1;jettySize=auto;html=1;endArrow=none;endFill=0;exitX=0.5;exitY=1;exitDx=0;exitDy=0;" parent="1" edge="1">
          <mxGeometry relative="1" as="geometry">
            <mxPoint x="11.700000000000045" y="1181.25" as="targetPoint" />
            <mxPoint x="11.700000000000045" y="1150.75" as="sourcePoint" />
          </mxGeometry>
        </mxCell>
        <mxCell id="BQkp51srK-hAf7yxFsHJ-41" style="edgeStyle=orthogonalEdgeStyle;rounded=0;orthogonalLoop=1;jettySize=auto;html=1;endArrow=none;endFill=0;exitX=0.5;exitY=1;exitDx=0;exitDy=0;" parent="1" edge="1">
          <mxGeometry relative="1" as="geometry">
            <mxPoint x="111.70000000000005" y="1183.75" as="targetPoint" />
            <mxPoint x="111.70000000000005" y="1153.25" as="sourcePoint" />
          </mxGeometry>
        </mxCell>
        <mxCell id="BQkp51srK-hAf7yxFsHJ-42" style="edgeStyle=orthogonalEdgeStyle;rounded=0;orthogonalLoop=1;jettySize=auto;html=1;endArrow=none;endFill=0;exitX=0.5;exitY=1;exitDx=0;exitDy=0;" parent="1" edge="1">
          <mxGeometry relative="1" as="geometry">
            <mxPoint x="211.70000000000005" y="1183.75" as="targetPoint" />
            <mxPoint x="211.70000000000005" y="1153.25" as="sourcePoint" />
          </mxGeometry>
        </mxCell>
        <mxCell id="BQkp51srK-hAf7yxFsHJ-43" style="edgeStyle=orthogonalEdgeStyle;rounded=0;orthogonalLoop=1;jettySize=auto;html=1;endArrow=none;endFill=0;exitX=0.5;exitY=1;exitDx=0;exitDy=0;" parent="1" edge="1">
          <mxGeometry relative="1" as="geometry">
            <mxPoint x="-88.09999999999991" y="1210.25" as="targetPoint" />
            <mxPoint x="-88.09999999999991" y="1179.75" as="sourcePoint" />
          </mxGeometry>
        </mxCell>
        <mxCell id="BQkp51srK-hAf7yxFsHJ-44" style="edgeStyle=orthogonalEdgeStyle;rounded=0;orthogonalLoop=1;jettySize=auto;html=1;endArrow=none;endFill=0;exitX=0.5;exitY=1;exitDx=0;exitDy=0;" parent="1" edge="1">
          <mxGeometry relative="1" as="geometry">
            <mxPoint x="11.899999999999864" y="1210.25" as="targetPoint" />
            <mxPoint x="11.899999999999864" y="1179.75" as="sourcePoint" />
          </mxGeometry>
        </mxCell>
        <mxCell id="BQkp51srK-hAf7yxFsHJ-45" style="edgeStyle=orthogonalEdgeStyle;rounded=0;orthogonalLoop=1;jettySize=auto;html=1;endArrow=none;endFill=0;exitX=0.5;exitY=1;exitDx=0;exitDy=0;" parent="1" edge="1">
          <mxGeometry relative="1" as="geometry">
            <mxPoint x="111.89999999999986" y="1210.25" as="targetPoint" />
            <mxPoint x="111.89999999999986" y="1179.75" as="sourcePoint" />
          </mxGeometry>
        </mxCell>
        <mxCell id="BQkp51srK-hAf7yxFsHJ-63" value="&lt;u&gt;card_id&lt;/u&gt;" style="ellipse;whiteSpace=wrap;html=1;fontSize=13;fillColor=#f5f5f5;strokeColor=#666666;fontColor=#333333;" parent="1" vertex="1">
          <mxGeometry x="665.7" y="1120" width="100" height="40" as="geometry" />
        </mxCell>
        <mxCell id="BQkp51srK-hAf7yxFsHJ-83" value="" style="endArrow=none;html=1;rounded=0;exitX=0.5;exitY=0;exitDx=0;exitDy=0;entryX=1;entryY=0.5;entryDx=0;entryDy=0;" parent="1" target="BQkp51srK-hAf7yxFsHJ-3" edge="1">
          <mxGeometry width="50" height="50" relative="1" as="geometry">
            <mxPoint x="400" y="916.8299999999999" as="sourcePoint" />
            <mxPoint x="135" y="916.8299999999999" as="targetPoint" />
          </mxGeometry>
        </mxCell>
        <mxCell id="BQkp51srK-hAf7yxFsHJ-87" style="edgeStyle=orthogonalEdgeStyle;rounded=0;orthogonalLoop=1;jettySize=auto;html=1;exitX=0;exitY=0.5;exitDx=0;exitDy=0;entryX=0.817;entryY=1.057;entryDx=0;entryDy=0;entryPerimeter=0;" parent="1" source="5g6gJACINlA3YSTMsDIn-68" target="5g6gJACINlA3YSTMsDIn-67" edge="1">
          <mxGeometry relative="1" as="geometry">
            <Array as="points">
              <mxPoint x="690" y="800" />
              <mxPoint x="690" y="690" />
              <mxPoint x="528" y="690" />
            </Array>
          </mxGeometry>
        </mxCell>
        <mxCell id="BQkp51srK-hAf7yxFsHJ-89" style="edgeStyle=orthogonalEdgeStyle;rounded=0;orthogonalLoop=1;jettySize=auto;html=1;endArrow=none;endFill=0;exitX=0.5;exitY=1;exitDx=0;exitDy=0;" parent="1" edge="1">
          <mxGeometry relative="1" as="geometry">
            <mxPoint x="715.6" y="1182" as="targetPoint" />
            <mxPoint x="715.6" y="1160" as="sourcePoint" />
          </mxGeometry>
        </mxCell>
        <mxCell id="BQkp51srK-hAf7yxFsHJ-90" style="edgeStyle=orthogonalEdgeStyle;rounded=0;orthogonalLoop=1;jettySize=auto;html=1;endArrow=none;endFill=0;exitX=0.5;exitY=1;exitDx=0;exitDy=0;" parent="1" edge="1">
          <mxGeometry relative="1" as="geometry">
            <mxPoint x="715.7" y="1203" as="targetPoint" />
            <mxPoint x="715.7" y="1181" as="sourcePoint" />
          </mxGeometry>
        </mxCell>
        <mxCell id="sgmP8QoL_bL-2wYsMg8x-1" value="&lt;u&gt;lineup_id&lt;/u&gt;" style="ellipse;whiteSpace=wrap;html=1;fontSize=13;fillColor=#f5f5f5;strokeColor=#666666;fontColor=#333333;" vertex="1" parent="1">
          <mxGeometry x="765.7" y="1120" width="100" height="40" as="geometry" />
        </mxCell>
        <mxCell id="sgmP8QoL_bL-2wYsMg8x-2" value="&lt;u&gt;player_id&lt;/u&gt;" style="ellipse;whiteSpace=wrap;html=1;fontSize=13;fillColor=#f5f5f5;strokeColor=#666666;fontColor=#333333;" vertex="1" parent="1">
          <mxGeometry x="865.7" y="1120" width="100" height="40" as="geometry" />
        </mxCell>
        <mxCell id="sgmP8QoL_bL-2wYsMg8x-3" value="card_type" style="ellipse;whiteSpace=wrap;html=1;fontSize=13;fillColor=#f5f5f5;strokeColor=#666666;fontColor=#333333;" vertex="1" parent="1">
          <mxGeometry x="965.7" y="1120" width="100" height="40" as="geometry" />
        </mxCell>
        <mxCell id="sgmP8QoL_bL-2wYsMg8x-4" value="card_time" style="ellipse;whiteSpace=wrap;html=1;fontSize=13;fillColor=#f5f5f5;strokeColor=#666666;fontColor=#333333;" vertex="1" parent="1">
          <mxGeometry x="665.7" y="1201" width="100" height="40" as="geometry" />
        </mxCell>
        <mxCell id="sgmP8QoL_bL-2wYsMg8x-5" value="card_reason" style="ellipse;whiteSpace=wrap;html=1;fontSize=13;fillColor=#f5f5f5;strokeColor=#666666;fontColor=#333333;" vertex="1" parent="1">
          <mxGeometry x="765.7" y="1201" width="100" height="40" as="geometry" />
        </mxCell>
        <mxCell id="sgmP8QoL_bL-2wYsMg8x-6" value="card_period" style="ellipse;whiteSpace=wrap;html=1;fontSize=13;fillColor=#f5f5f5;strokeColor=#666666;fontColor=#333333;" vertex="1" parent="1">
          <mxGeometry x="865.7" y="1201" width="100" height="40" as="geometry" />
        </mxCell>
        <mxCell id="sgmP8QoL_bL-2wYsMg8x-7" style="edgeStyle=orthogonalEdgeStyle;rounded=0;orthogonalLoop=1;jettySize=auto;html=1;endArrow=none;endFill=0;exitX=0.5;exitY=1;exitDx=0;exitDy=0;" edge="1" parent="1">
          <mxGeometry relative="1" as="geometry">
            <mxPoint x="815.44" y="1182" as="targetPoint" />
            <mxPoint x="815.44" y="1160" as="sourcePoint" />
          </mxGeometry>
        </mxCell>
        <mxCell id="sgmP8QoL_bL-2wYsMg8x-8" style="edgeStyle=orthogonalEdgeStyle;rounded=0;orthogonalLoop=1;jettySize=auto;html=1;endArrow=none;endFill=0;exitX=0.5;exitY=1;exitDx=0;exitDy=0;" edge="1" parent="1">
          <mxGeometry relative="1" as="geometry">
            <mxPoint x="915.44" y="1182" as="targetPoint" />
            <mxPoint x="915.44" y="1160" as="sourcePoint" />
          </mxGeometry>
        </mxCell>
        <mxCell id="sgmP8QoL_bL-2wYsMg8x-9" style="edgeStyle=orthogonalEdgeStyle;rounded=0;orthogonalLoop=1;jettySize=auto;html=1;endArrow=none;endFill=0;exitX=0.5;exitY=1;exitDx=0;exitDy=0;" edge="1" parent="1">
          <mxGeometry relative="1" as="geometry">
            <mxPoint x="1015.44" y="1182" as="targetPoint" />
            <mxPoint x="1015.44" y="1160" as="sourcePoint" />
          </mxGeometry>
        </mxCell>
        <mxCell id="sgmP8QoL_bL-2wYsMg8x-10" style="edgeStyle=orthogonalEdgeStyle;rounded=0;orthogonalLoop=1;jettySize=auto;html=1;endArrow=none;endFill=0;exitX=0.5;exitY=1;exitDx=0;exitDy=0;" edge="1" parent="1">
          <mxGeometry relative="1" as="geometry">
            <mxPoint x="815.4000000000001" y="1201" as="targetPoint" />
            <mxPoint x="815.4000000000001" y="1179" as="sourcePoint" />
          </mxGeometry>
        </mxCell>
        <mxCell id="sgmP8QoL_bL-2wYsMg8x-12" style="edgeStyle=orthogonalEdgeStyle;rounded=0;orthogonalLoop=1;jettySize=auto;html=1;endArrow=none;endFill=0;exitX=0.5;exitY=1;exitDx=0;exitDy=0;" edge="1" parent="1">
          <mxGeometry relative="1" as="geometry">
            <mxPoint x="915.4000000000001" y="1201" as="targetPoint" />
            <mxPoint x="915.4000000000001" y="1179" as="sourcePoint" />
          </mxGeometry>
        </mxCell>
        <mxCell id="sgmP8QoL_bL-2wYsMg8x-33" style="edgeStyle=orthogonalEdgeStyle;rounded=0;orthogonalLoop=1;jettySize=auto;html=1;exitX=0;exitY=0.5;exitDx=0;exitDy=0;entryX=1;entryY=0.5;entryDx=0;entryDy=0;" edge="1" parent="1" source="sgmP8QoL_bL-2wYsMg8x-29" target="5g6gJACINlA3YSTMsDIn-68">
          <mxGeometry relative="1" as="geometry" />
        </mxCell>
        <mxCell id="sgmP8QoL_bL-2wYsMg8x-29" value="&lt;span style=&quot;font-size: 14px;&quot;&gt;&lt;b&gt;Ball_Recovery&lt;/b&gt;&lt;/span&gt;" style="rounded=0;whiteSpace=wrap;html=1;fillColor=#fff2cc;strokeColor=#d6b656;" vertex="1" parent="1">
          <mxGeometry x="1172.24" y="810" width="120" height="35" as="geometry" />
        </mxCell>
        <mxCell id="sgmP8QoL_bL-2wYsMg8x-34" style="edgeStyle=orthogonalEdgeStyle;rounded=0;orthogonalLoop=1;jettySize=auto;html=1;exitX=0;exitY=0.5;exitDx=0;exitDy=0;entryX=1;entryY=0.5;entryDx=0;entryDy=0;" edge="1" parent="1" source="sgmP8QoL_bL-2wYsMg8x-30" target="5g6gJACINlA3YSTMsDIn-68">
          <mxGeometry relative="1" as="geometry" />
        </mxCell>
        <mxCell id="sgmP8QoL_bL-2wYsMg8x-30" value="&lt;span style=&quot;font-size: 14px;&quot;&gt;&lt;b&gt;Duel&lt;/b&gt;&lt;/span&gt;" style="rounded=0;whiteSpace=wrap;html=1;fillColor=#fff2cc;strokeColor=#d6b656;" vertex="1" parent="1">
          <mxGeometry x="1172.24" y="855" width="120" height="35" as="geometry" />
        </mxCell>
        <mxCell id="sgmP8QoL_bL-2wYsMg8x-35" style="edgeStyle=orthogonalEdgeStyle;rounded=0;orthogonalLoop=1;jettySize=auto;html=1;exitX=0;exitY=0.5;exitDx=0;exitDy=0;entryX=1;entryY=0.5;entryDx=0;entryDy=0;" edge="1" parent="1" source="sgmP8QoL_bL-2wYsMg8x-31" target="5g6gJACINlA3YSTMsDIn-68">
          <mxGeometry relative="1" as="geometry" />
        </mxCell>
        <mxCell id="sgmP8QoL_bL-2wYsMg8x-31" value="&lt;span style=&quot;font-size: 14px;&quot;&gt;&lt;b&gt;Camera On&lt;/b&gt;&lt;/span&gt;" style="rounded=0;whiteSpace=wrap;html=1;fillColor=#fff2cc;strokeColor=#d6b656;" vertex="1" parent="1">
          <mxGeometry x="1172.24" y="905" width="120" height="35" as="geometry" />
        </mxCell>
        <mxCell id="sgmP8QoL_bL-2wYsMg8x-36" style="edgeStyle=orthogonalEdgeStyle;rounded=0;orthogonalLoop=1;jettySize=auto;html=1;exitX=0;exitY=0.5;exitDx=0;exitDy=0;entryX=1;entryY=0.5;entryDx=0;entryDy=0;" edge="1" parent="1" source="sgmP8QoL_bL-2wYsMg8x-32" target="5g6gJACINlA3YSTMsDIn-68">
          <mxGeometry relative="1" as="geometry" />
        </mxCell>
        <mxCell id="sgmP8QoL_bL-2wYsMg8x-32" value="&lt;span style=&quot;font-size: 14px;&quot;&gt;&lt;b&gt;Camera On&lt;/b&gt;&lt;/span&gt;" style="rounded=0;whiteSpace=wrap;html=1;fillColor=#fff2cc;strokeColor=#d6b656;" vertex="1" parent="1">
          <mxGeometry x="1172.24" y="957.25" width="120" height="35" as="geometry" />
        </mxCell>
      </root>
    </mxGraphModel>
  </diagram>
</mxfile>
